<?xml version="1.0" encoding="UTF-8"?>
<svg width="1200pt" height="1200pt" version="1.1" viewBox="0 0 1200 1200" xmlns="http://www.w3.org/2000/svg">
 <g fill="#d2d2d2">
  <path d="m1101.6 1101.6h-268.8c-8.3984 0-14.398-6-16.801-13.199l-48-194.4-336-0.003906-55.199 194.4c-2.3984 7.1992-8.3984 12-16.801 12h-261.6c-10.801 0-19.199-10.801-16.801-21.602l260.4-967.2c2.3984-7.1992 8.3984-13.199 16.801-13.199h482.4c8.3984 0 14.398 4.8008 16.801 13.199l260.4 967.2c2.4023 12-6 22.801-16.797 22.801zm-980.4-34.801h224.4l55.199-194.4c2.3984-7.1992 8.3984-12 16.801-12l362.4-0.003906c8.3984 0 14.398 6 16.801 13.199l48 194.4h232.8l-249.6-934.8h-456z"/>
  <path d="m729.6 660h-259.2c-12 0-19.199-10.801-16.801-21.602l86.402-310.8c2.3984-7.1992 8.3984-13.199 16.801-13.199h86.398c7.1992 0 14.398 4.8008 16.801 13.199l86.398 310.8c2.4023 10.797-4.7969 21.598-16.797 21.598zm-236.4-33.602h213.6l-76.801-276h-60z"/>
 </g>
</svg>
