<?xml version="1.0" encoding="UTF-8"?>
<svg width="1200pt" height="1200pt" version="1.1" viewBox="0 0 1200 1200" xmlns="http://www.w3.org/2000/svg">
 <g fill="#676767">
  <path d="m281.25 187.5c-20.711 0-37.5 16.789-37.5 37.5s16.789 37.5 37.5 37.5h37.5c20.711 0 37.5-16.789 37.5-37.5s-16.789-37.5-37.5-37.5z"/>
  <path d="m37.5 300c0-144.98 117.52-262.5 262.5-262.5h600c144.98 0 262.5 117.52 262.5 262.5v600c0 144.98-117.52 262.5-262.5 262.5h-600c-144.98 0-262.5-117.52-262.5-262.5zm1050 0v18.75h-975v-18.75c0-103.55 83.949-187.5 187.5-187.5h600c103.55 0 187.5 83.949 187.5 187.5zm0 93.75h-975v506.25c0 103.55 83.949 187.5 187.5 187.5h600c103.55 0 187.5-83.949 187.5-187.5z" fill-rule="evenodd"/>
 </g>
</svg>
